# xmcd
#
# Track frame offsets:
#	180
#	9558
#	27954
#	37696
#	51354
#	61585
#	71532
#	81102
#	90323
#	99739
#	113161
#	122676
#	134563
#	147217
#	158358
#	171540
#	182248
#	194960
#
# Disc length: 2734 seconds
#
# Revision: 1
# Processed by: cddbd v1.4PL0 Copyright (c) Steve Scherf et al.
# Submitted via: audiograbber 1.81.03
#
DISCID=f30aac12
DTITLE=Elivs Presley - Sing the hits of
DYEAR=1900
DGENRE=
TTITLE0=All Shook Up
TTITLE1=An American Trilogy
TTITLE2=Any Way You Want Me
TTITLE3=Are You Lonesome Tonight
TTITLE4=Baby, Let's Play House
TTITLE5=A Big Hunk O' Love
TTITLE6=Blue Christmas
TTITLE7=Blue Moon of Kentucky
TTITLE8=Blue Suede Shoes
TTITLE9=Blueberry Hill
TTITLE10=Bossa Nova Baby
TTITLE11=Breathless
TTITLE12=Burning Love
TTITLE13=C.C. Rider
TTITLE14=Can't Help Falling In Love
TTITLE15=Crying In The Chapel
TTITLE16=Don't
TTITLE17=Don't Be Cruel (To A Heart That's True)
EXTD=
EXTT0=
EXTT1=
EXTT2=
EXTT3=
EXTT4=
EXTT5=
EXTT6=
EXTT7=
EXTT8=
EXTT9=
EXTT10=
EXTT11=
EXTT12=
EXTT13=
EXTT14=
EXTT15=
EXTT16=
EXTT17=
PLAYORDER=
